HIERARCHY
ROOT Hips
{
    OFFSET 0.000000 0.000000 0.000000
    CHANNELS 6 Xposition Yposition Zposition Zrotation Xrotation Yrotation
        JOINT Chest
        {
            OFFSET -0.000000 30.832245 -0.000000
            CHANNELS 3 Zrotation Xrotation Yrotation
            JOINT Neck
            {
                OFFSET -0.000000 22.747684 0.000000
                CHANNELS 3 Zrotation Xrotation Yrotation
                JOINT Head
                {
                    OFFSET -0.000000 10.755556 0.000000
                    CHANNELS 3 Zrotation Xrotation Yrotation
                    End Site
                    {
                        OFFSET -0.000000 16.622223 0.000000
                    }
                }
            }
            JOINT LeftCollar
            {
                OFFSET -0.000000 22.747684 0.000000
                CHANNELS 3 Zrotation Xrotation Yrotation
                JOINT LeftShoulder
                {
                    OFFSET 19.555553 -0.000000 0.000000
                    CHANNELS 3 Zrotation Xrotation Yrotation
                    JOINT LeftElbow
                    {
                        OFFSET 22.529686 0.000000 0.000000
                        CHANNELS 3 Zrotation Xrotation Yrotation
                        JOINT LeftWrist
                        {
                            OFFSET 26.249420 0.000000 0.000000
                            CHANNELS 3 Zrotation Xrotation Yrotation
                            End Site
                            {
                                OFFSET 0.000000 -14.666668 0.000000
                            }
                        }
                    }
                }
            }
            JOINT RightCollar
            {
                OFFSET -0.000000 22.747684 0.000000
                CHANNELS 3 Zrotation Xrotation Yrotation
                JOINT RightShoulder
                {
                    OFFSET -19.555553 0.000000 0.000000
                    CHANNELS 3 Zrotation Xrotation Yrotation
                    JOINT RightElbow
                    {
                        OFFSET -22.529686 0.000000 0.000000
                        CHANNELS 3 Zrotation Xrotation Yrotation
                        JOINT RightWrist
                        {
                            OFFSET -26.249420 0.000000 0.000000
                            CHANNELS 3 Zrotation Xrotation Yrotation
                            End Site
                            {
                                OFFSET -0.000000 -14.666668 0.000000
                            }
                        }
                    }
                }
            }
        }
    JOINT LeftHip
    {
        OFFSET 11.733333 0.000000 0.000000
        CHANNELS 3 Zrotation Xrotation Yrotation
        JOINT LeftKnee
        {
            OFFSET -0.000000 -34.781296 0.000000
            CHANNELS 3 Zrotation Xrotation Yrotation
            JOINT LeftAnkle
            {
                OFFSET -0.000000 -42.425819 0.000000
                CHANNELS 3 Zrotation Xrotation Yrotation
                End Site
                {
                    OFFSET -0.000000 -4.888888 16.622223
                }
            }
        }
    }
    JOINT RightHip
    {
        OFFSET -11.733333 0.000000 0.000000
        CHANNELS 3 Zrotation Xrotation Yrotation
        JOINT RightKnee
        {
            OFFSET -0.000000 -34.781296 0.000000
            CHANNELS 3 Zrotation Xrotation Yrotation
            JOINT RightAnkle
            {
                OFFSET -0.000000 -42.425819 0.000000
                CHANNELS 3 Zrotation Xrotation Yrotation
                End Site
                {
                    OFFSET -0.000000 -4.888888 16.622223
                }
            }
        }
    }
}
MOTION
Frames:    14
Frame Time:    0.010000
-60.277592    86.205933    -22.758308    -3.655718    0.984286    40.163090    -0.344073    14.890242    0.377743    1.322855    0.590553    2.229166    -0.287826    -10.539641    2.172434    -10.096386    -0.032278    0.682069    -29.142897    57.275478    -49.017929    9.977962    -3.570457    -39.581413    137.130493    12.623950    47.068672    9.241838    0.328696    4.410679    52.884647    39.895676    26.541430    3.603044    0.786054    24.606583    -105.512955    -7.139769    12.071830    11.477032    -14.305074    3.624755    -4.188940    21.225073    1.824109    -4.879947    -3.182374    20.534435    -3.782950    -11.929868    -1.593578    1.606869    18.083368    -5.254336    4.699963    -8.558206    -13.747336    
-60.301464    86.201027    -22.651497    -3.563146    0.881299    40.446285    -0.336726    14.874136    0.431930    1.468547    0.328949    2.094102    -0.410600    -10.111005    2.060443    -10.090809    -0.066485    0.527742    -29.369997    57.288719    -48.774738    10.124656    -3.655558    -39.774666    137.290115    12.859192    47.007088    9.223910    0.355403    4.188704    52.729923    39.898819    26.709759    3.765347    0.838629    24.612730    -105.404160    -7.222558    12.174227    11.478248    -14.245481    3.862624    -4.013163    21.299629    1.343104    -5.142186    -3.254642    20.482746    -3.773495    -11.594191    -1.703571    1.667583    17.926455    -5.418159    5.209408    -8.719251    -13.744870    
-60.316849    86.186638    -22.587589    -3.547668    0.857485    40.700054    -0.371710    14.830500    0.504963    1.564019    0.342717    2.016083    -0.434066    -10.195253    1.980695    -10.064528    -0.031963    0.587445    -28.954670    57.403713    -49.150372    10.359279    -3.777855    -39.844540    137.386337    12.828606    46.899307    9.166810    0.316963    4.002191    52.355171    40.194431    27.155220    3.753225    0.795320    24.857725    -105.590240    -7.049093    11.751712    11.510337    -14.376878    3.996181    -3.963820    21.502430    1.102045    -5.310609    -3.428334    20.357327    -3.840080    -11.374196    -1.839071    1.829481    17.749470    -5.699289    4.728151    -8.722391    -13.579259    
-60.346603    86.189781    -22.542645    -3.543911    0.848442    40.900688    -0.383822    14.777501    0.566909    1.655450    0.235150    1.942888    -0.489893    -10.077729    1.902561    -10.040723    -0.031724    0.565762    -28.844597    57.463573    -49.254490    10.624012    -3.909351    -39.945736    137.432465    12.898137    46.831856    9.110527    0.278757    3.847435    52.182606    40.309696    27.390110    3.815888    0.824423    24.970633    -105.642815    -6.988202    11.601493    11.547038    -14.493765    4.090361    -3.943543    21.653793    0.921687    -5.458158    -3.554133    20.303356    -3.869659    -11.244033    -1.994436    1.908653    17.654161    -5.846197    4.621887    -8.777270    -13.459030    
-60.385609    86.192909    -22.497841    -3.554475    0.850437    41.135292    -0.394743    14.690534    0.647124    1.753113    0.126830    1.868319    -0.544267    -9.960102    1.822476    -10.020120    -0.059498    0.566645    -28.747015    57.568172    -49.334675    10.939685    -4.070337    -40.065475    137.487015    12.958007    46.747902    9.028611    0.301392    3.698792    51.976219    40.373375    27.698647    3.994069    0.885705    25.046585    -105.781525    -6.956462    11.450961    11.609097    -14.672464    4.184810    -3.962698    21.866003    0.750096    -5.606508    -3.721768    20.261686    -3.904795    -11.122222    -2.209875    1.993615    17.555983    -5.989807    4.494259    -8.850794    -13.304747    
-60.432404    86.193779    -22.452995    -3.580454    0.860142    41.405079    -0.400717    14.570300    0.744313    1.869631    0.016828    1.779830    -0.605852    -9.843241    1.726586    -10.000188    -0.039517    0.568623    -28.628073    57.651936    -49.429886    11.218144    -4.185918    -40.201164    137.595322    13.006001    46.663044    8.930517    0.255551    3.531630    51.794945    40.482643    27.975126    3.997242    0.918110    25.307163    -105.827332    -6.830266    11.260606    11.705745    -14.919420    4.281797    -4.036819    22.156128    0.592146    -5.725150    -3.932475    20.244625    -3.941651    -11.006958    -2.489775    2.079659    17.455336    -6.114481    4.376269    -8.954801    -13.137907    
-60.484982    86.189934    -22.407471    -3.621956    0.872270    41.711288    -0.403848    14.420132    0.855973    2.015423    -0.096425    1.665405    -0.680370    -9.727472    1.602723    -9.976803    -0.073554    0.552303    -28.528719    57.819954    -49.494370    11.723820    -4.441258    -40.361168    137.592850    13.008269    46.568729    8.811568    0.268249    3.319623    51.578922    40.542030    28.328062    4.220722    0.980381    25.478737    -106.031998    -6.772092    11.096474    11.845504    -15.238271    4.383601    -4.179658    22.540470    0.451548    -5.778937    -4.183438    20.264051    -3.975148    -10.894843    -2.831051    2.162994    17.353432    -6.209581    4.308481    -9.101258    -12.991120    
-60.540516    86.179108    -22.360268    -3.676841    0.879239    42.054676    -0.400591    14.245596    0.978032    2.175994    -0.200850    1.539986    -0.750846    -9.620703    1.471191    -9.956322    -0.033790    0.550237    -28.422834    57.934528    -49.557373    12.117214    -4.609162    -40.539986    137.714386    12.984898    46.474297    8.679327    0.241020    3.099251    51.343216    40.661430    28.690018    4.307636    1.000166    25.820612    -106.156479    -6.626480    10.894769    12.033746    -15.627275    4.491502    -4.400457    23.031874    0.334310    -5.733429    -4.469291    20.329048    -4.000534    -10.779913    -3.222155    2.242640    17.252703    -6.273045    4.329697    -9.297557    -12.902689    
-60.594856    86.159264    -22.309757    -3.739364    0.870889    42.435104    -0.389222    14.057629    1.106791    2.356867    -0.295792    1.394683    -0.819182    -9.524085    1.321199    -9.937157    -0.073174    0.542370    -28.377714    58.145206    -49.544079    12.819583    -4.959922    -40.745968    137.668610    12.882660    46.372711    8.537376    0.213835    2.849513    51.056519    40.817150    29.102034    4.454833    1.033838    26.188162    -106.348747    -6.469557    10.650450    12.270817    -16.076122    4.607409    -4.701517    23.636890    0.250233    -5.557478    -4.781197    20.445368    -4.014935    -10.651353    -3.644269    2.321362    17.155569    -6.312561    4.466051    -9.543845    -12.905171    
-60.642136    86.128571    -22.253531    -3.798887    0.834586    42.851543    -0.370656    13.870312    1.239925    2.554456    -0.373379    1.233030    -0.879600    -9.440796    1.153287    -9.924713    -0.033492    0.527714    -28.378113    58.281399    -49.470402    13.361612    -5.190140    -40.981182    137.811005    12.751103    46.259518    8.392482    0.167357    2.578916    50.708710    41.033672    29.557699    4.553621    1.082909    26.649199    -106.525925    -6.254636    10.327979    12.550353    -16.563677    4.732388    -5.077621    24.353563    0.215110    -5.224859    -5.106355    20.617748    -4.018666    -10.492097    -4.074213    2.405467    17.064281    -6.344460    4.723036    -9.834894    -13.014666    
-60.674931    86.085411    -22.188694    -3.840919    0.757113    43.302700    -0.347872    13.699450    1.377815    2.765581    -0.425402    1.058253    -0.924626    -9.372574    0.970824    -9.921521    -0.073029    0.507898    -28.502985    58.492336    -49.248344    14.211098    -5.611095    -41.254398    137.809921    12.529245    46.116409    8.247115    0.189161    2.304356    50.249779    41.234718    30.130018    4.771478    1.193268    27.090532    -106.792107    -6.056856    9.948090    12.859384    -17.060141    4.861736    -5.518258    25.170462    0.252433    -4.714820    -5.426778    20.850796    -4.016017    -10.281562    -4.489436    2.504104    16.982332    -6.391974    5.077114    -10.160411    -13.222487    
-60.685104    86.028725    -22.112688    -3.849905    0.628382    43.787495    -0.327705    13.560970    1.524116    2.990931    -0.449428    0.868093    -0.947427    -9.318720    0.774965    -9.928157    -0.038821    0.482467    -28.744091    58.611156    -48.888535    14.918536    -5.917687    -41.581997    138.015381    12.299199    45.937153    8.111403    0.156018    2.038880    49.734200    41.500633    30.722677    4.832375    1.193329    27.733252    -106.976738    -5.810497    9.583378    13.178988    -17.533098    4.982159    -6.008929    26.067043    0.386923    -4.015670    -5.720580    21.147465    -4.015168    -10.002177    -4.873351    2.626683    16.917055    -6.480564    5.469275    -10.504518    -13.492150    
-60.665382    85.958572    -22.024363    -3.813188    0.445110    44.303692    -0.320719    13.467458    1.685234    3.233017    -0.452582    0.656465    -0.942250    -9.272332    0.562280    -9.939192    -0.004646    0.447616    -29.119076    58.709263    -48.376602    15.811779    -6.358263    -41.975620    138.213028    12.027411    45.691975    7.986304    0.117556    1.787480    49.150833    41.754398    31.371429    4.974233    1.246527    28.396004    -107.184586    -5.607506    9.213348    13.486650    -17.954325    5.075489    -6.530206    27.014734    0.632448    -3.136537    -5.967012    21.504763    -4.026492    -9.646388    -5.218221    2.780157    16.880184    -6.630397    5.812780    -10.846148    -13.767312    
-60.610985    85.876251    -21.924744    -3.724746    0.212716    44.846180    -0.337024    13.424573    1.867573    3.489668    -0.443152    0.429492    -0.902934    -9.227704    0.328244    -9.947108    -0.004705    0.411727    -29.666403    58.805023    -47.672985    16.854465    -6.886622    -42.445660    138.474396    11.773773    45.389801    7.873032    0.079964    1.563602    48.488777    41.970406    32.098694    5.157234    1.307858    29.125051    -107.415695    -5.457520    8.884797    13.759851    -18.304443    5.122452    -7.058777    27.977591    0.986990    -2.115604    -6.150537    21.908911    -4.059797    -9.221338    -5.525360    2.966394    16.886827    -6.848466    6.017970    -11.164281    -13.989750    
